<?xml version="1.0" encoding="utf-8"?>
<!-- Generator: Adobe Illustrator 16.0.3, SVG Export Plug-In . SVG Version: 6.00 Build 0)  -->
<!DOCTYPE svg PUBLIC "-//W3C//DTD SVG 1.1//EN" "http://www.w3.org/Graphics/SVG/1.1/DTD/svg11.dtd">
<svg version="1.1" id="Layer_1" xmlns="http://www.w3.org/2000/svg" xmlns:xlink="http://www.w3.org/1999/xlink" x="0px" y="0px"
	 width="150px" height="150px" viewBox="0 0 150 150" enable-background="new 0 0 150 150" xml:space="preserve">
<path opacity="0.5" fill="#149AA5" d="M75,0C33.59,0,0.021,33.57,0.021,74.979c0,41.411,33.57,74.98,74.979,74.98
	c41.411,0,74.98-33.569,74.98-74.98C149.979,33.57,116.41,0,75,0z M75,127.788c-29.165,0-52.809-23.643-52.809-52.81
	C22.191,45.814,45.834,22.17,75,22.17c29.167,0,52.809,23.644,52.809,52.808C127.809,104.146,104.166,127.788,75,127.788z"/>
<path fill="#149AA5" d="M75,0.021c-41.409,0-74.979,33.57-74.979,74.979h22.17C22.191,45,46.75,22.17,75,22.17
	c27.008,0,52.809,21.497,52.809,52.829h22.171C149.979,33.59,116.41,0.021,75,0.021z"/>
</svg>
