<svg id="Layer_1" xmlns="http://www.w3.org/2000/svg" viewBox="0 0 253.3 91.1"><style>.st0{fill:#fff}</style><path class="st0" d="M94.6 11.3c-13 0-23.6 10.6-23.6 23.6s10.6 23.6 23.6 23.6 23.6-10.6 23.6-23.6-10.6-23.6-23.6-23.6zm0 38.3c-8.1 0-14.7-6.6-14.7-14.7s6.6-14.7 14.7-14.7 14.7 6.6 14.7 14.7-6.6 14.7-14.7 14.7zM46.7 11.3c-5.6 0-10.6 2.5-14 6.5-3.4-4-8.4-6.5-14-6.5C8.5 11.3.3 19.6.3 29.7v28h8.8v-28c0-5.3 4.3-9.6 9.6-9.6s9.6 4.3 9.6 9.6v28h8.8v-28c0-5.3 4.3-9.6 9.6-9.6s9.6 4.3 9.6 9.6v28h8.8v-28c0-10.1-8.3-18.4-18.4-18.4zM171.2 11.3c-13 0-23.6 10.6-23.6 23.6s10.6 23.6 23.6 23.6c13 0 23.6-10.6 23.6-23.6s-10.6-23.6-23.6-23.6zm0 38.3c-8.1 0-14.7-6.6-14.7-14.7s6.6-14.7 14.7-14.7 14.7 6.6 14.7 14.7-6.6 14.7-14.7 14.7zM251.8 57.7h-45.7v-4.4L243.3 18h-35.7v-5.9h45.7v4l-37.2 35.8h35.7zM142.4 57.8c-10.2 0-18.4-8.3-18.4-18.4V0h8.8v11.4h11.4v8.8h-11.4v19.1c0 5.3 4.3 9.6 9.6 9.6h1.8v8.8l-1.8.1zM7.9 84.4H3.7v6.7H0v-21h8.3c4.9 0 8 2.8 8 7 0 4.8-3.8 7.3-8.4 7.3zM8 73.5H3.7v7.6H8c2.8 0 4.5-1.5 4.5-3.8 0-2.5-1.8-3.8-4.5-3.8zM19.4 70.1h3.7v17.6h11v3.4H19.4v-21zM57.5 91.1h-3.9L51.5 86h-9.9l-2.2 5.1h-3.8L44.8 70h3.4l9.3 21.1zm-11-16.7l-3.6 8.4h7.2l-3.6-8.4zM67.1 91.1h-3.7v-8.3L55 70.1h4.3l5.9 9.3 5.9-9.3h4.2L67 82.7v8.4z"/></svg>