<svg version="1.1" id="Layer_1" xmlns="http://www.w3.org/2000/svg" xmlns:xlink="http://www.w3.org/1999/xlink" x="0px" y="0px"
	 viewBox="0 0 250 54" style="enable-background:new 0 0 250 54;" xml:space="preserve">
<style type="text/css">
	.st0{fill:#222c30;}
</style>
<g>
	<g>
		<path class="st0" d="M66.5,41.9c-5.3,0-9.2-4.2-9.2-10c0-5.8,3.9-10,9.2-10c5.4,0,9.3,4.2,9.3,10C75.8,37.7,71.9,41.9,66.5,41.9
			 M66.5,16c-8.9,0-15.6,6.8-15.6,15.9c0,9,6.7,15.8,15.6,15.8c8.9,0,15.7-6.8,15.7-15.8C82.2,22.8,75.4,16,66.5,16 M123,41.9
			c-5.3,0-9.2-4.2-9.2-10c0-5.8,3.9-10,9.2-10c5.4,0,9.3,4.2,9.3,10C132.3,37.7,128.4,41.9,123,41.9 M123,16
			c-8.9,0-15.6,6.8-15.6,15.9c0,9,6.7,15.8,15.6,15.8c8.9,0,15.7-6.8,15.7-15.8C138.7,22.8,132,16,123,16 M96.5,5.5h-6.2v11.2h-6
			v5.7h6v13.7c0,6.5,3.9,10.8,9.8,10.8c2.1,0,3.8-0.2,3.8-0.2V41c0,0-1.5,0.1-2.5,0.1c-0.4,0-0.8,0-1.2,0c-3-0.2-3.6-2.6-3.6-4.7
			V22.4h7.3v-5.7h-7.3V5.5z M33.6,16L33.6,16c-3.7,0-6.8,1.3-8.9,3.6c-2.1-2.3-5.4-3.6-9.1-3.6c-7.2,0-12,4.8-12,12v18.9h6.1V27.7
			c0-3.4,2.3-5.9,5.9-5.9c3.5,0,6,2.5,6,5.9v19.2h6.1V28c0-0.9-0.1-1.8-0.2-2.6c1-2.1,3.4-3.5,6.1-3.5c3.5,0,5.9,2.5,5.9,5.9v19.2
			h6.1V28C45.6,20.8,40.8,16,33.6,16"/>
	</g>
	<g>
		<path class="st0" d="M167.4,26.5c-0.1,0-0.2,0-0.2,0l10.3-11.8l0.1-0.1V14h-20.1v2.3h15.7L162,29.2l-0.1,0.2l0.4,0.5l0.2-0.1
			c1.1-0.5,2.7-1,4.7-1c6.1,0,9.5,3,9.5,8.5c0,5.2-3.7,8.6-9.3,8.6c-4.4,0-7.8-2.1-9.8-6.1l-0.1-0.2l-2.3,1.1l0.1,0.2
			c2,4.5,6.7,7.4,12,7.4c7.2,0,12-4.4,12-10.9C179.2,30.7,174.6,26.5,167.4,26.5"/>
		<path class="st0" d="M196.4,25.1c-1.7,0-3.3,0.4-4.5,1l8.4-12.2h-2.8l-9.8,14.1c-1.7,2.6-3.4,5.5-3.4,8.6
			c0,6.6,5.1,11.5,11.9,11.5c6.6,0,11.7-5.1,11.7-11.5C207.8,30.2,202.8,25.1,196.4,25.1 M196.1,45.8c-5.5,0-9.2-3.7-9.2-9.1
			c0-5.2,4-9.1,9.3-9.1c5.4,0,9,3.6,9,9.1C205.2,42.1,201.5,45.8,196.1,45.8"/>
		<path class="st0" d="M229,16.4c8,0,14.5,6.5,14.5,14.5c0,8-6.5,14.5-14.5,14.5c-8,0-14.5-6.5-14.5-14.5
			C214.5,23,221,16.4,229,16.4 M229,14c-9.4,0-17,7.6-17,17c0,9.4,7.6,17,17,17c9.4,0,17-7.6,17-17C246,21.6,238.4,14,229,14"/>
	</g>
</g>
</svg>
