<?xml version="1.0" encoding="utf-8"?>
<!-- Generator: Adobe Illustrator 19.2.1, SVG Export Plug-In . SVG Version: 6.00 Build 0)  -->
<svg version="1.1" id="Layer_1" xmlns="http://www.w3.org/2000/svg" xmlns:xlink="http://www.w3.org/1999/xlink" x="0px" y="0px"
	 viewBox="0 0 413.8 58.1" style="enable-background:new 0 0 413.8 58.1;" xml:space="preserve">
<style type="text/css">
	.st0{fill:#ffffff;}
</style>
<g>
	<path class="st0" d="M402.5,57.4h-23.9v-5.9h23.9c3,0,5.4-2.4,5.4-5.4c0-2.1-1.3-4.1-3.2-5L387,33.2c-4.1-1.8-6.7-5.9-6.7-10.4
		c0-6.3,5.1-11.3,11.3-11.3h22.3v5.9h-22.3c-3,0-5.4,2.4-5.4,5.4c0,2.1,1.3,4.1,3.2,5l17.7,7.9c4.1,1.8,6.7,5.9,6.7,10.4
		C413.8,52.3,408.7,57.4,402.5,57.4z"/>
</g>
<g>
	<g>
		<path class="st0" d="M299,16.7c9.8,0,17.8,8,17.8,17.8s-8,17.8-17.8,17.8c-9.8,0-17.8-8-17.8-17.8S289.2,16.7,299,16.7 M299,10.7
			c-13.1,0-23.7,10.6-23.7,23.7s10.6,23.7,23.7,23.7c13.1,0,23.7-10.6,23.7-23.7S312,10.7,299,10.7L299,10.7z"/>
	</g>
</g>
<g>
	<path class="st0" d="M252.3,10.7c-5.8,0-11,3-14.1,7.4c-3.1-4.5-8.2-7.4-14.1-7.4c-9.4,0-17,7.6-17,17v29.6h5.9V27.8
		c0-6.1,5-11.1,11.1-11.1c6.1,0,11.1,5,11.1,11.1v29.6h5.9V27.8c0-6.1,5-11.1,11.1-11.1c6.1,0,11.1,5,11.1,11.1v29.6h5.9V27.8
		C269.4,18.4,261.7,10.7,252.3,10.7z"/>
</g>
<g>
	<path class="st0" d="M369,0v18.8c-4.3-4.9-10.7-8-17.8-8c-13.1,0-23.7,10.6-23.7,23.7s10.6,23.7,23.7,23.7
		c13.1,0,23.7-10.6,23.7-23.7V0H369z M351.2,52.2c-9.8,0-17.8-8-17.8-17.8s8-17.8,17.8-17.8c9.8,0,17.8,8,17.8,17.8
		S361,52.2,351.2,52.2z"/>
</g>
<g>
	<path class="st0" d="M94.8,10.7c-13.1,0-23.7,10.6-23.7,23.7s10.6,23.7,23.7,23.7c13.1,0,23.7-10.6,23.7-23.7S107.8,10.7,94.8,10.7
		z M94.8,49.2c-8.2,0-14.8-6.6-14.8-14.8s6.6-14.8,14.8-14.8c8.2,0,14.8,6.6,14.8,14.8S102.9,49.2,94.8,49.2z"/>
</g>
<g>
	<path class="st0" d="M46.6,10.7c-5.6,0-10.7,2.5-14.1,6.5c-3.4-4-8.4-6.5-14.1-6.5C8.3,10.7,0,19,0,29.2v28.1h8.9V29.2
		c0-5.3,4.3-9.6,9.6-9.6s9.6,4.3,9.6,9.6v28.1H37V29.2c0-5.3,4.3-9.6,9.6-9.6c5.3,0,9.6,4.3,9.6,9.6v28.1h8.9V29.2
		C65.2,19,56.9,10.7,46.6,10.7z"/>
</g>
<g>
	<path class="st0" d="M171.8,10.7c-13.1,0-23.7,10.6-23.7,23.7s10.6,23.7,23.7,23.7c13.1,0,23.7-10.6,23.7-23.7
		S184.9,10.7,171.8,10.7z M171.8,49.2c-8.2,0-14.8-6.6-14.8-14.8s6.6-14.8,14.8-14.8c8.2,0,14.8,6.6,14.8,14.8S180,49.2,171.8,49.2z
		"/>
</g>
<g>
	<g>
		<path class="st0" d="M142.9,58.1c-10.2,0-18.5-8.3-18.5-18.5V0h8.9v11.5h11.5v8.9h-11.5v19.3c0,5.3,4.3,9.6,9.6,9.6l1.9,0v8.9
			L142.9,58.1z"/>
	</g>
</g>
</svg>
