<?xml version="1.0" encoding="utf-8"?>
<!-- Generator: Adobe Illustrator 19.1.0, SVG Export Plug-In . SVG Version: 6.00 Build 0)  -->
<svg version="1.1" id="Layer_1" xmlns="http://www.w3.org/2000/svg" xmlns:xlink="http://www.w3.org/1999/xlink" x="0px" y="0px"
	 viewBox="14 33 521 135" style="enable-background:new 14 33 521 135;" xml:space="preserve">
<style type="text/css">
	.st0{fill:#231F20;}
</style>
<g>
	<path class="st0" d="M148.4,57c-18.9,0-33.1,14.5-33.1,33.8c0,19.2,14.2,33.7,33.1,33.7c19,0,33.3-14.5,33.3-33.7
		C181.8,71.5,167.4,57,148.4,57z M148.4,112.1c-11.3,0-19.5-8.9-19.5-21.3c0-12.3,8.2-21.3,19.5-21.3c11.4,0,19.7,9,19.7,21.3
		S159.9,112.1,148.4,112.1z"/>
	<path class="st0" d="M270.5,57c-18.9,0-33.1,14.5-33.1,33.8c0,19.2,14.2,33.7,33.1,33.7c19,0,33.3-14.5,33.3-33.7
		C303.8,71.5,289.5,57,270.5,57z M270.5,112.1c-11.3,0-19.5-8.9-19.5-21.3c0-12.3,8.2-21.3,19.5-21.3c11.4,0,19.7,9,19.7,21.3
		S281.9,112.1,270.5,112.1z"/>
	<path class="st0" d="M213.2,32.8h-13.2v25.8h-12.8v12.1h12.8v29.1c0,13.8,8.4,23,20.8,23c4.4,0,8-0.5,8-0.5v-12
		c0,0-3.1,0.2-5.4,0.2c-0.9,0-1.8,0-2.6-0.1c-6.3-0.3-7.6-5.6-7.6-10V70.8h15.6V58.6h-15.6V32.8z"/>
	<path class="st0" d="M79.7,57c-7.9,0-14.5,2.8-19,7.6C56.2,59.8,49.2,57,41.4,57C26,57,15.8,67.2,15.8,82.6v40.3h13.1v-41
		c0-7.3,5-12.5,12.5-12.5s12.8,5.2,12.8,12.5v40.9h13.1V82.6c0-2-0.2-3.8-0.5-5.6c2.2-4.5,7.3-7.5,13-7.5c7.5,0,12.4,5.2,12.4,12.5
		v40.9h13.1V82.6C105.2,67.2,94.8,57,79.7,57z"/>
	<polygon class="st0" points="393.8,61.1 389.8,57 360,86.7 330.4,57 326.2,61.1 356,90.7 326.2,120.4 330.4,124.5 360,94.8 
		389.8,124.5 393.8,120.4 364,90.7 	"/>
	<g>
		<path class="st0" d="M31.5,146.4c-1.7-1.7-4.2-2.8-6-2.8c-2.9,0-4.7,1.7-4.7,3.6c0,1.7,1.1,3,3.7,4.3l2.5,1.3
			c4.2,2.2,6.5,4.4,6.5,8.1c0,4.3-3.7,7.4-8.7,7.4c-4.1,0-7.1-1.9-9.1-3.7l2-2.9c1.9,1.8,4.5,3.3,7,3.3c3.3,0,5-1.8,5-4.2
			c0-2-1.8-3.4-4.5-4.8l-2.7-1.4c-3.6-1.8-5.5-3.9-5.5-7.4c0-3.7,3.3-7,8.3-7c2.8,0,6.1,1.4,8.1,3.2L31.5,146.4z"/>
		<g>
			<path class="st0" d="M60.8,140.9v3.3h-8.2v23.7h-3.9v-23.8h-8.2v-3.3h20.3V140.9z"/>
			<path class="st0" d="M68.8,140.9h4.6l7.8,11.8h0.1l7.8-11.8h4.4l-10.4,15v12h-3.8V156L68.8,140.9z"/>
			<path class="st0" d="M101.4,167.9v-27h3.8v23.8h11.8v3.2H101.4z"/>
			<path class="st0" d="M143.9,144.1h-15.1v8.4h9.6v3.2h-9.6v8.9h15.1v3.2H125v-27h18.9V144.1z"/>
		</g>
	</g>
</g>
</svg>
