<?xml version="1.0" encoding="utf-8"?>
<!-- Generator: Adobe Illustrator 19.2.0, SVG Export Plug-In . SVG Version: 6.00 Build 0)  -->
<svg version="1.1" id="Layer_1" xmlns="http://www.w3.org/2000/svg" xmlns:xlink="http://www.w3.org/1999/xlink" x="0px" y="0px"
	 viewBox="0 0 250 48" style="enable-background:new 0 0 250 48;" xml:space="preserve">
<g>
	<g>
		<path style="fill:#222C30;" d="M69,13.7c-9.6,0-16.8,7.4-16.8,17.2C52.2,40.6,59.4,48,69,48c9.6,0,16.9-7.4,16.9-17.1
			C85.9,21.1,78.6,13.7,69,13.7 M69,41.7c-5.8,0-9.9-4.5-9.9-10.8c0-6.3,4.2-10.8,9.9-10.8c5.8,0,10,4.6,10,10.8
			C79,37.2,74.8,41.7,69,41.7"/>
		<path style="fill:#222C30;" d="M131,13.7c-9.6,0-16.8,7.4-16.8,17.2c0,9.7,7.2,17.1,16.8,17.1c9.6,0,16.9-7.4,16.9-17.1
			C147.9,21.1,140.6,13.7,131,13.7 M131,41.7c-5.8,0-9.9-4.5-9.9-10.8c0-6.3,4.2-10.8,9.9-10.8c5.8,0,10,4.6,10,10.8
			C141,37.2,136.8,41.7,131,41.7"/>
		<path style="fill:#222C30;" d="M101.9,1.4h-6.7v13.1h-6.5v6.2h6.5v14.8c0,7,4.3,11.7,10.6,11.7c2.3,0,4.1-0.3,4.1-0.3v-6.2
			c0,0-1.6,0.1-2.7,0.1c-0.5,0-0.9,0-1.3,0c-3.2-0.2-3.9-2.9-3.9-5.1V20.7h7.9v-6.2h-7.9V1.4z"/>
		<path style="fill:#222C30;" d="M34,13.7c-4,0-7.4,1.4-9.7,3.8c-2.3-2.4-5.8-3.8-9.8-3.8c-7.7,0-13,5.2-13,13v20.5h6.6V26.4
			c0-3.7,2.5-6.3,6.3-6.3c3.8,0,6.5,2.6,6.5,6.3v20.8h6.6V26.7c0-1-0.1-2-0.3-2.9c1.1-2.3,3.7-3.8,6.6-3.8c3.8,0,6.3,2.6,6.3,6.3
			v20.8h6.6V26.7C46.9,18.9,41.7,13.7,34,13.7"/>
		<polygon style="fill:#222C30;" points="193.6,15.8 191.6,13.7 176.5,28.8 161.4,13.7 159.4,15.8 174.4,30.9 159.4,45.9 161.4,48 
			176.5,32.9 191.6,48 193.6,45.9 178.5,30.9 		"/>
		<path style="fill:#222C30;" d="M208.1,15.8c-1.2,0-2.5,0.1-4,0.3v-3.1c0.3,0.1,1,0.1,2.2,0.2c1.2,0.1,1.8,0.1,1.8,0.1h3.6V5.9
			c0-0.2,0-0.6-0.1-1.3l-0.1-1.1l-0.1-1.4l3.7,0.4c0.4,0.1,0.6,0.1,0.7,0.2c0,0.1-0.2,0.2-0.5,0.5c-0.3,0.2-0.5,0.5-0.6,1
			c-0.2,0.5-0.2,1.3-0.2,2.3v6.8h2.9c0,0,0.6,0,1.7-0.1c1.1-0.1,1.9-0.1,2.3-0.2v3.1c-1.6-0.2-2.9-0.3-4-0.3h-3v1.9
			c0.5,0.5,1.4,1.5,2.7,2.9c1.4,1.5,2.8,3.1,4.4,4.9c-0.4,0.2-0.8,0.5-1.1,0.7c-0.3,0.2-0.9,0.7-1.6,1.5c-0.7-1.2-1.3-2.1-1.9-2.9
			c-0.6-0.8-1.5-1.8-2.5-2.9v21.7c0,0.1,0,0.5,0.1,1l0.1,1.7l0.2,1.8h-3.5c0.1-0.8,0.2-1.7,0.2-2.8c0.1-1.1,0.1-1.6,0.1-1.7V23.8
			c-0.3,0.7-0.5,1.1-0.6,1.5l-1,2.4c-1.2,2.8-2.5,5.2-3.7,7.2c-1-0.8-1.6-1.3-2.1-1.4l-1.4-0.4c1.9-1.9,3.3-3.9,4.4-6
			c1.1-2.1,1.9-4,2.6-5.8c0.7-1.8,1.1-3.1,1.3-4.1l0.3-1.3H208.1z M215.7,43.3c1.7-1.3,3-2.4,3.9-3.5c0.9-1.1,1.7-2.3,2.4-3.5
			c0.7-1.2,1.3-2.4,1.8-3.6c0.5-1.2,0.9-2.4,1.2-3.8c0.3-1.4,0.6-2.8,0.8-4.4c0.2-1.5,0.3-2.8,0.4-3.8c0.1-1,0.1-2.3,0.2-4l0.1-5.4
			l0.1-3.2h-1.9c-1.2,0-2.5,0.1-4,0.2v-3c1.8,0.2,3.1,0.2,4,0.2h15c0.8,0,2.2-0.1,4.3-0.2c-0.3,0.6-0.5,1.1-0.6,1.3
			c-0.1,0.3-0.3,1-0.7,2.2l-1.1,3.2l-0.9,2.9l-1.4,3.7l-0.6,1.5h4l1.4-0.1c1.3-0.1,2.3-0.1,2.8-0.2c-0.7,2.2-1.4,4.3-2,6.2
			c-0.6,1.9-1.4,3.7-2.4,5.5c-0.9,1.8-1.9,3.5-2.9,5.1c1.7,1.6,3.2,3.1,4.6,4.2c1.4,1.2,3.2,2.2,5.5,3.2c-0.8,0.4-1.5,0.8-2,1.2
			c-0.5,0.4-1.1,0.9-1.6,1.7c-0.9-0.7-2.4-2-4.3-3.8c-2-1.8-3.4-3.2-4.3-4.1c-1.8,1.7-3.4,3.1-4.7,4.1c-1.3,1-3.5,2.6-6.6,4.6
			c-0.3-0.4-0.5-0.9-0.9-1.3c-0.3-0.4-1-1.1-2.2-1.9c1.8-0.4,3.9-1.3,6.2-2.7c2.3-1.4,4.3-3.1,6.1-5.3c-0.6-0.9-1.4-2-2.2-3.4
			c-0.8-1.4-1.5-2.5-1.9-3.5c-0.5-0.9-1.3-2.8-2.4-5.7c-0.4,2.5-0.7,4.6-1.1,6.1c-0.3,1.5-0.9,3.2-1.6,4.9c-0.8,1.7-1.4,3-2,3.9
			c-0.5,0.9-1.3,1.9-2.3,3.3c-1,1.3-1.8,2.3-2.5,3.1c-0.4-0.4-0.8-0.8-1.2-1.1C217.6,43.8,216.8,43.5,215.7,43.3 M229.1,16.8
			c0.2,0.8,0.3,1.5,0.5,2.1c0.2,0.6,0.7,2.1,1.5,4.4c0.9,2.3,1.7,4.2,2.5,5.7c0.8,1.5,1.9,3.3,3.4,5.5c0.8-1.2,1.5-2.3,2.1-3.2
			c0.5-0.9,1.1-2.1,1.7-3.5c0.6-1.4,1-2.4,1.2-3.2l0.5-1.9h-4.9c-1.2,0-2.5,0.1-3.8,0.3c0.8-1.5,1.7-3.4,2.7-5.6c1-2.2,2-5.3,3-9.1
			h-10.2L229.1,16.8z"/>
	</g>
</g>
</svg>
